<?xml version="1.0" encoding="UTF-8" standalone="no"?>
<svg width="997px" height="397px" viewBox="0 0 997 397" version="1.1" xmlns="http://www.w3.org/2000/svg" xmlns:xlink="http://www.w3.org/1999/xlink" xmlns:sketch="http://www.bohemiancoding.com/sketch/ns">
    <title>Slice 1</title>
    <description>Created with Sketch (http://www.bohemiancoding.com/sketch)</description>
    <defs></defs>
    <g id="Page 1" stroke="none" stroke-width="1" fill="none" fill-rule="evenodd">
        <g id="dna2">
            <g id="Page 1">
                <g id="dna copy">
                    <g id="Group">
                        <g id="Rectangle 1" transform="translate(20.698962, 44.827586)" fill="#E6E6E6">
                            <path d="M29.6187208,267.089461 C20.2681406,269.363878 10.4095218,271.042176 0,271.988739 L0,0 L29.6187208,0 L29.6187208,267.089461 L29.6187208,267.089461 Z M98.7290693,242.796154 C89.5849782,248.966966 79.7473902,254.763214 69.1103485,259.854084 L69.1103485,26.3875114 L98.7290693,26.3875114 L98.7290693,242.796154 L98.7290693,242.796154 Z M385.04337,254.026916 C374.298218,249.838751 364.482384,244.866923 355.424649,239.200049 L355.424649,16.0426838 L385.04337,16.0426838 L385.04337,254.026916 L385.04337,254.026916 Z M454.153719,272.035844 C443.670226,271.297421 433.818066,270.07882 424.534999,268.412111 L424.534999,0 L454.153719,0 L454.153719,272.035844 L454.153719,272.035844 Z M533.136974,264.181807 C523.874613,267.307588 514.024839,269.702473 503.518253,271.179193 L503.518253,0 L533.136974,0 L533.136974,264.181807 L533.136974,264.181807 Z M602.247323,228.52634 C593.201342,236.781121 583.394791,244.688887 572.628602,251.716807 L572.628602,26.3875114 L602.247323,26.3875114 L602.247323,228.52634 L602.247323,228.52634 Z M888.561623,257.766207 C877.911386,254.511581 868.078806,250.617223 858.942902,246.135941 L858.942902,16.0426838 L888.561623,16.0426838 L888.561623,257.766207 L888.561623,257.766207 Z M957.671972,272.413793 C947.247116,271.914665 937.390177,271.013377 928.053252,269.731238 L928.053252,0 L957.671972,0 L957.671972,272.413793 L957.671972,272.413793 Z M957.671972,272.413793" id="path-1"></path>
                        </g>
                        <g id="Rectangle 1-1" transform="translate(20.698962, 44.827586)">
                            <path d="M29.6187208,267.089461 C20.2681406,269.363878 10.4095218,271.042176 0,271.988739 L0,0 L29.6187208,0 L29.6187208,267.089461 L29.6187208,267.089461 Z M98.7290693,242.796154 C89.5849782,248.966966 79.7473902,254.763214 69.1103485,259.854084 L69.1103485,26.3875114 L98.7290693,26.3875114 L98.7290693,242.796154 L98.7290693,242.796154 Z M385.04337,254.026916 C374.298218,249.838751 364.482384,244.866923 355.424649,239.200049 L355.424649,16.0426838 L385.04337,16.0426838 L385.04337,254.026916 L385.04337,254.026916 Z M454.153719,272.035844 C443.670226,271.297421 433.818066,270.07882 424.534999,268.412111 L424.534999,0 L454.153719,0 L454.153719,272.035844 L454.153719,272.035844 Z M533.136974,264.181807 C523.874613,267.307588 514.024839,269.702473 503.518253,271.179193 L503.518253,0 L533.136974,0 L533.136974,264.181807 L533.136974,264.181807 Z M602.247323,228.52634 C593.201342,236.781121 583.394791,244.688887 572.628602,251.716807 L572.628602,26.3875114 L602.247323,26.3875114 L602.247323,228.52634 L602.247323,228.52634 Z M888.561623,257.766207 C877.911386,254.511581 868.078806,250.617223 858.942902,246.135941 L858.942902,16.0426838 L888.561623,16.0426838 L888.561623,257.766207 L888.561623,257.766207 Z M957.671972,272.413793 C947.247116,271.914665 937.390177,271.013377 928.053252,269.731238 L928.053252,0 L957.671972,0 L957.671972,272.413793 L957.671972,272.413793 Z M957.671972,272.413793" id="path-1"></path>
                        </g>
                        <g id="Path 1" fill="#E6E6E6">
                            <path d="M200.578855,164.746388 C159.727538,106.145025 106.511206,59.4827586 0,59.4827586 L0,0 C125.96767,0 189.360595,47.4822814 233.757994,106.804359 C222.530656,126.083667 211.599478,145.504195 200.578855,164.746388 L200.578855,164.746388 Z M997,0 L997,59.4827586 C710.732673,59.4827586 809.445543,396.551724 498.5,396.551724 C379.651038,396.551731 320.649297,347.309145 277.123409,286.466767 C288.083948,267.482697 298.739509,248.432611 309.45553,229.619352 C347.915286,289.241999 396.245238,337.068972 498.5,337.068966 C760.08911,337.068966 661.376237,0 997,0 L997,0 Z M796.421142,231.805338 C837.272462,290.406701 890.488793,337.068966 997,337.068966 L997,396.551724 C872.39444,396.551724 807.657039,350.090762 762.122511,291.66755 C773.743442,271.758077 785.034554,251.68652 796.421142,231.805338 L796.421142,231.805338 Z M0,396.551724 L0,337.068966 C286.267327,337.068966 187.554455,0 498.5,0 C617.348958,0 676.350701,49.2425869 719.876588,110.084962 C708.222838,130.269704 696.913857,150.529077 685.510402,170.499066 C646.312726,109.228661 598.993722,59.4827586 498.5,59.4827586 C227.039604,59.4827586 335.623762,396.551724 0,396.551724 L0,396.551724 Z M0,396.551724" id="path-2"></path>
                        </g>
                        <g id="Path 1-1">
                            <path d="M200.578855,164.746388 C159.727538,106.145025 106.511206,59.4827586 0,59.4827586 L0,0 C125.96767,0 189.360595,47.4822814 233.757994,106.804359 C222.530656,126.083667 211.599478,145.504195 200.578855,164.746388 L200.578855,164.746388 Z M997,0 L997,59.4827586 C710.732673,59.4827586 809.445543,396.551724 498.5,396.551724 C379.651038,396.551731 320.649297,347.309145 277.123409,286.466767 C288.083948,267.482697 298.739509,248.432611 309.45553,229.619352 C347.915286,289.241999 396.245238,337.068972 498.5,337.068966 C760.08911,337.068966 661.376237,0 997,0 L997,0 Z M796.421142,231.805338 C837.272462,290.406701 890.488793,337.068966 997,337.068966 L997,396.551724 C872.39444,396.551724 807.657039,350.090762 762.122511,291.66755 C773.743442,271.758077 785.034554,251.68652 796.421142,231.805338 L796.421142,231.805338 Z M0,396.551724 L0,337.068966 C286.267327,337.068966 187.554455,0 498.5,0 C617.348958,0 676.350701,49.2425869 719.876588,110.084962 C708.222838,130.269704 696.913857,150.529077 685.510402,170.499066 C646.312726,109.228661 598.993722,59.4827586 498.5,59.4827586 C227.039604,59.4827586 335.623762,396.551724 0,396.551724 L0,396.551724 Z M0,396.551724" id="path-2"></path>
                        </g>
                    </g>
                </g>
            </g>
        </g>
    </g>
</svg>